<svg aria-hidden="true" style="position:absolute;width:0;height:0" xmlns="http://www.w3.org/2000/svg" overflow="hidden">
  <defs>
    <symbol id="icon-envelope" viewBox="0 0 43 32">
      <path d="M38.667 0H4C1.787 0 0 1.787 0 4v24c0 2.213 1.787 4 4 4h34.667c2.213 0 4-1.787 4-4V4c0-2.213-1.787-4-4-4zm0 2.667h.011c.189 0 .368.039.531.11l-.009-.003-17.867 15.467L3.466 2.774a1.32 1.32 0 0 1 .523-.107h34.677zm0 26.666H4A1.333 1.333 0 0 1 2.667 28V5.6l17.787 15.413a1.328 1.328 0 0 0 1.761-.001l-.001.001L40.001 5.6V28c0 .736-.597 1.333-1.333 1.333z"/>
    </symbol>
    <symbol id="icon-smartphone" viewBox="0 0 20 32">
      <path d="M17 0H3C1.34 0 0 1.34 0 3v26c0 1.66 1.34 3 3 3h14c1.66 0 3-1.34 3-3V3c0-1.66-1.34-3-3-3zM3 2h14c.56 0 1 .44 1 1v21H2V3c0-.56.44-1 1-1zm14 28H3a1 1 0 0 1-1-1v-3h16v3a1 1 0 0 1-1 1z"/>
      <path d="M4.7 27.48c.4.36.4.96 0 1.32a1.055 1.055 0 0 1-1.401-.001l.001.001a.899.899 0 0 1 0-1.319l.001-.001c.4-.36 1-.36 1.4 0z"/>
    </symbol>
    <symbol id="icon-antenna" viewBox="0 0 32 32">
      <path fill="var(--color2, #212121)" d="m30.775 22.098-8.443-8.503.937-4.617c.242.091.498.142.759.146h.027a2.158 2.158 0 1 0-2.029-1.421l-.005-.015-4.955.603L8.975.158a.537.537 0 0 0-.379-.16.517.517 0 0 0-.37.155L6.713 1.657a.53.53 0 0 0 0 .754l.814.823c-1.143 2.062-1.816 4.522-1.816 7.14 0 4.106 1.656 7.824 4.336 10.525l-.001-.001a.531.531 0 0 0 .146.101c-.032.183-.05.366-.05.549v6.185h-6.4a2.67 2.67 0 0 0-2.67 2.665v1.065c0 .297.238.535.535.535h24.535c.293 0 .53-.238.53-.535v-1.065a2.67 2.67 0 0 0-2.665-2.665h-6.4V24.99c.915.2 1.966.315 3.043.315 2.581 0 5.008-.659 7.123-1.817l-.077.039.818.823a.52.52 0 0 0 .375.16.555.555 0 0 0 .375-.155l1.509-1.509a.525.525 0 0 0 0-.75zM23.278 6.235a1.065 1.065 0 1 1 .754 1.819h-.002a1.065 1.065 0 0 1-.747-1.824zm-1.253 3.502-.599 2.944-1.175-1.179 1.774-1.765zm-.608-.9-1.92 1.906-1.486-1.49 3.406-.416zM24.005 28.8a1.6 1.6 0 0 1 1.6 1.6v.535H2.14V30.4a1.6 1.6 0 0 1 1.6-1.6h20.261zm-7.466-2.135v1.07H11.2v-1.07h5.335zM11.2 25.6v-4.055c0-1.294 1.198-2.345 2.665-2.345 1.472 0 2.67 1.051 2.67 2.345V25.6H11.2zm6.4-1.696v-2.359c0-1.879-1.673-3.41-3.735-3.41h-.062a3.796 3.796 0 0 0-3.211 1.768l-.009.016a13.814 13.814 0 0 1-3.809-9.548c0-2.314.567-4.496 1.569-6.415l-.036.077 18.606 18.711c-1.822.946-3.978 1.501-6.264 1.501-1.08 0-2.132-.124-3.141-.358l.093.018zm11.291-.686-.754-.754L7.835 2.039l.754-.75L29.65 22.468l-.759.75z"/>
      <path fill="var(--color3, #2196f3)" d="M13.874 20.265h-.005a1.6 1.6 0 0 0-.005 3.2h.007a1.6 1.6 0 0 0 .002-3.2zm.375 1.98a.534.534 0 0 1-.912-.38c0-.296.238-.533.532-.535a.535.535 0 0 1 .375.914z"/>
    </symbol>
    <symbol id="icon-clock" viewBox="0 0 32 32">
      <path fill="var(--color2, #212121)" d="M31.296 15.301C31.295 6.849 24.443-.002 15.991-.002S.686 6.85.686 15.303c0 6.79 4.422 12.548 10.543 14.55l.108.031a.678.678 0 0 0 .534-.066l-.003.002a.644.644 0 0 0 .283-.357l3.863-12.251a1.911 1.911 0 1 0-.852-3.63l.011-.005-5.102-5.106a.64.64 0 0 0-.905.901l-.001-.001 5.106 5.111a1.871 1.871 0 0 0 .531 2.305l.004.003-3.685 11.671c-5.408-2.035-9.186-7.165-9.186-13.177 0-7.756 6.287-14.043 14.043-14.043s14.043 6.287 14.043 14.043c0 5.688-3.381 10.586-8.243 12.793l-.088.036-.398-1.874a.642.642 0 0 0-1.048-.343l.001-.001-3.84 3.429a.64.64 0 0 0 .228 1.078l.005.001 4.901 1.563a.64.64 0 0 0 .818-.745l.001.004-.393-1.838c5.529-2.374 9.33-7.772 9.33-14.057v-.034.002zm-15.305-.64a.64.64 0 0 1 0 1.28.64.64 0 0 1 0-1.28zm2.103 14.866 2.185-1.947.599 2.839-2.789-.891z"/>
      <path fill="var(--color3, #2196f3)" d="M15.355 3.186v1.275a.64.64 0 1 0 1.276-.002v.002-1.28a.64.64 0 0 0-1.28 0zM3.877 14.665a.641.641 0 0 0-.002 1.276h1.277a.64.64 0 0 0 0-1.28h-1.28zm24.233 1.276a.64.64 0 0 0 0-1.28h-1.28a.64.64 0 0 0 0 1.28h1.28z"/>
    </symbol>
    <symbol id="icon-diagram" viewBox="0 0 32 32">
      <path fill="var(--color3, #2196f3)" d="M14.926 14.967h1.065v4.795h-1.065v-4.8zm4.265 2.13h1.065v2.665h-1.065v-2.665zm-8.53 1.6h1.065v1.065h-1.065v-1.065zm-3.2-.535h1.07v1.6h-1.07v-1.6z"/>
      <path fill="var(--color2, #212121)" d="M1.6 28.293h25.586a1.6 1.6 0 0 0 1.6-1.6v-2.135a1.6 1.6 0 0 0-1.6-1.6h-.535V9.673l3.031-2.871a1.609 1.609 0 1 0-.745-.754l-.004-.01L26.652 8.2V6.97a1.6 1.6 0 0 0-1.6-1.6H3.731a1.6 1.6 0 0 0-1.6 1.6v15.995h-.53a1.6 1.6 0 0 0-1.6 1.6v2.13a1.6 1.6 0 0 0 1.6 1.6zM30.386 4.837a.535.535 0 1 1-.003 1.066h.002a.536.536 0 0 1-.002-1.065h.002zM3.2 6.967a.53.53 0 0 1 .53-.53h21.321c.297 0 .535.238.535.53v2.24l-1.065 1.015V8.037a.533.533 0 0 0-.535-.535H4.8a.531.531 0 0 0-.53.535v13.326c0 .293.238.53.53.53h19.191a.532.532 0 0 0 .535-.53V11.69l1.065-1.01v12.283H3.2V6.968zm4.8 6.93h-.013a1.6 1.6 0 1 0 1.115 2.747l1.856.933a.538.538 0 0 0 .635-.123l3.936-4.434 3.872 2.903c.21.155.503.137.686-.037l3.369-3.191v8.137H5.33V8.562h18.126v2.661l-3.771 3.57-3.904-2.926a.535.535 0 0 0-.722.073v.001l-3.991 4.494-1.495-.75c.014-.064.018-.128.023-.192a1.6 1.6 0 0 0-1.6-1.6zm.53 1.6a.535.535 0 1 1-1.07 0 .535.535 0 1 1 1.07 0zm3.2 8.53h5.321v.53a.532.532 0 0 1-.53.535h-4.265a.536.536 0 0 1-.535-.535v-.53zm-10.669.531c0-.293.238-.53.535-.53h9.061v.53a1.6 1.6 0 0 0 1.6 1.6h4.265a1.6 1.6 0 0 0 1.6-1.6v-.53h9.061a.53.53 0 0 1 .53.53v2.135a.53.53 0 0 1-.53.53H1.601a.532.532 0 0 1-.535-.53v-2.135z"/>
    </symbol>
    <symbol id="icon-astronaut" viewBox="0 0 32 32">
      <path fill="var(--color3, #2196f3)" d="M31.973 4.526a.537.537 0 0 0-.43-.366l-1.911-.274-.855-1.737c-.178-.361-.777-.361-.955 0l-.85 1.737-1.911.274a.535.535 0 0 0-.297.915l1.385 1.344-.325 1.902a.535.535 0 0 0 .776.561l-.003.001 1.71-.896 1.705.896a.535.535 0 0 0 .777-.566v.003l-.329-1.902 1.385-1.349a.538.538 0 0 0 .137-.549zm-2.46 1.325a.53.53 0 0 0-.155.471l.192 1.115-1.001-.526a.525.525 0 0 0-.501.002l.003-.001-1.001.526.192-1.115a.529.529 0 0 0-.151-.471l-.814-.791 1.12-.16a.541.541 0 0 0 .402-.293l.503-1.015.498 1.015a.55.55 0 0 0 .402.293l1.12.16-.809.791zm-3.378 14.675h-1.07v1.065h1.07v-1.07zm0 2.13h-1.07v1.065h1.07v-1.065zm1.065-1.065h-1.065v1.065H27.2v-1.065zm-2.135 0H24v1.065h1.065v-1.065zm-2.665 4.8h-1.065v1.065H22.4v-1.065zm0 2.135h-1.065v1.065H22.4v-1.07zm1.065-1.07H22.4v1.065h1.065v-1.065zm-2.13 0h-1.07v1.065h1.07v-1.065zM16 24.256h-1.065v1.065H16v-1.065zm0 2.135h-1.065v1.065H16v-1.065zm1.065-1.065H16v1.065h1.065v-1.07zm-2.13 0h-1.07v1.065h1.07v-1.07zm-9.07-19.2H4.8v1.065h1.065v-1.07zm0 2.13H4.8v1.065h1.065V8.256zm1.07-1.065h-1.07v1.065h1.07V7.191zm-2.135 0H3.735v1.065H4.8V7.191z"/>
      <path fill="var(--color2, #212121)" d="M24.713 14.158a1.776 1.776 0 0 0-1.179-.703l-.009-.001a1.769 1.769 0 0 0-1.343.355l.004-.003-1.248.96-1.902 1.417-1.358-.539c2.423-1.088 4.114-3.506 4.114-6.322 0-3.822-3.122-6.93-6.962-6.93s-6.958 3.109-6.958 6.93c0 1.39.411 2.674 1.12 3.762l-2.77-.027-.023.005a.451.451 0 0 0-.155.032l-.037.014-.023.005-3.232 1.6-1.893.91a1.783 1.783 0 0 0 1.784 3.085l-.01.005 1.385-.736 2.263-1.17 1.358-.009L.86 23.555a1.644 1.644 0 0 0-.001 2.354 1.664 1.664 0 0 0 2.358 0l1.307-1.312 1.742-1.298.901.896-1.76 1.755-1.339 1.33a1.641 1.641 0 0 0 0 2.358 1.664 1.664 0 0 0 2.358 0l3.483-3.47 1.015-1.006h-.005l.018-.018 5.166-5.659 3.474.498a.502.502 0 0 0 .264-.038l-.003.001.05-.023c.018-.009.041-.014.059-.027l3.214-2.13.027-.032.041-.023 1.271-1.193c.347-.326.562-.788.562-1.3 0-.401-.132-.771-.355-1.068l.003.005zM2.13 17.769a.716.716 0 0 1-.775-1.205l.003-.002 1.317-.631.315.923.133.389-.992.526zm3.497-1.828-1.55.8L3.821 16l-.183-.535 2.03-1.006-.041 1.486zm15.1-6.615a5.8 5.8 0 0 1-.599 2.56l-4.183-1.897a1.862 1.862 0 0 0-.78-1.386l-.006-.004 1.463-4.859c2.377.754 4.105 2.971 4.105 5.586zm-11.79 0a5.888 5.888 0 0 1 6.672-5.816l-.03-.003-1.435 4.754-.055-.005a1.874 1.874 0 0 0-1.874 1.865v.001a1.874 1.874 0 0 0 3.488.932l.005-.009 3.858 1.755A5.893 5.893 0 0 1 8.932 9.327v-.001zm5.957.8a.807.807 0 1 1-1.614 0c0-.439.366-.8.809-.8s.805.361.805.8zM2.469 25.147a.614.614 0 0 1-.855 0 .593.593 0 0 1 0-.846l.96-.96.855.85-.965.951zm3.213 3.731a.601.601 0 0 1-.855-.842l.96-.96.855.846-.96.96zm3.484-3.465-1.769 1.76-.85-.85 1.765-1.751c.041-.046.064-.091.091-.137l.023-.046a.366.366 0 0 0 .027-.123c0-.027.014-.046.014-.073 0-.037-.014-.073-.018-.105l-.018-.096a.694.694 0 0 0-.091-.137l-.027-.041-1.609-1.6c-.014-.018-.037-.023-.055-.037-.032-.023-.059-.046-.091-.059a.504.504 0 0 0-.088-.031l-.003-.001a.542.542 0 0 0-.098-.023h-.003c-.032 0-.064 0-.096.009-.037 0-.069.009-.105.018a.312.312 0 0 0-.091.046c-.023.009-.046.014-.064.027l-1.774 1.326-.901-.901 2.4-2.386 4.361 4.293-.928.914zm6.816-7.018h-.046l-.025-.001a.521.521 0 0 0-.355.138l-.041.032-4.699 5.143-4.325-4.251 2.834-2.821a.535.535 0 0 0-.377-.914h-.007l-2.217.014.027-1.609 3.104.027a6.926 6.926 0 0 0 4.977 2.099c.455 0 .899-.044 1.33-.127l-.044.007a.544.544 0 0 0 .128.087l2.409.96.151.759.183.882-3.008-.425zm4.041.179-.311-1.559 1.445-1.079.379.503.567.75-2.08 1.385zm3.758-2.835-.841.786-.928-1.234.827-.64a.73.73 0 0 1 .553-.141l-.004-.001a.719.719 0 0 1 .394 1.234z"/>
      <path fill="var(--color2, #212121)" d="m13.6 18.546-2.139-2.135a.535.535 0 0 0-.754 0l-2.144 2.135a.535.535 0 0 0 0 .754l2.144 2.135a.535.535 0 0 0 .754 0L13.6 19.3a.535.535 0 0 0 0-.754zm-2.514 1.756-1.394-1.376 1.385-1.381 1.39 1.381-1.39 1.381zm6.08-15.228-.261 1.033c.073.018 1.737.453 1.737 2.149h1.07c0-2.016-1.669-2.967-2.546-3.186zm2.546 4.252h-1.07v1.065h1.07v-1.07z"/>
    </symbol>
    <symbol id="icon-instagram" viewBox="0 0 32 32">
      <path d="M31.968 9.408a11.64 11.64 0 0 0-.763-3.968l.027.08a7.858 7.858 0 0 0-1.854-2.83l-.002-.002c-.8-.8-1.76-1.44-2.832-1.84a11.483 11.483 0 0 0-3.875-.752h-.013c-1.458-.07-3.167-.109-4.885-.109-.6 0-1.199.005-1.797.014l.09-.001c-4.352 0-4.896.016-6.592.096C7.76.16 6.592.448 5.584.832a7.992 7.992 0 0 0-2.832 1.856c-.816.8-1.44 1.76-1.856 2.832A11.473 11.473 0 0 0 .16 9.397v.011c-.07 1.458-.109 3.167-.109 4.885 0 .6.005 1.199.014 1.797L.064 16c0 4.352 0 4.896.08 6.592.03 1.405.303 2.737.779 3.968l-.027-.08a7.782 7.782 0 0 0 1.856 2.832c.8.816 1.76 1.44 2.832 1.856 1.008.384 2.176.656 3.872.736 1.712.08 2.24.096 6.592.096s4.896-.016 6.608-.096a11.648 11.648 0 0 0 3.952-.763l-.08.027a8.242 8.242 0 0 0 4.669-4.633l.019-.055c.384-1.024.672-2.176.736-3.888.08-1.696.096-2.24.096-6.592 0-4.336 0-4.88-.08-6.592zm-2.88 13.072c-.064 1.552-.32 2.4-.544 2.96a5.34 5.34 0 0 1-3.004 3.027l-.036.013c-.56.224-1.424.48-2.976.544-1.68.08-2.192.096-6.464.096a114.015 114.015 0 0 1-6.706-.105l.242.009c-1.568-.064-2.4-.32-2.96-.544a4.96 4.96 0 0 1-1.839-1.199L4.8 27.28a4.975 4.975 0 0 1-1.189-1.79l-.011-.034a8.64 8.64 0 0 1-.544-2.972v-.004a108.653 108.653 0 0 1-.095-6.546l-.001.083c0-4.272.016-4.784.096-6.464.064-1.568.32-2.4.544-2.976a4.774 4.774 0 0 1 1.2-1.824 4.98 4.98 0 0 1 1.806-1.189l.034-.011c.56-.224 1.408-.48 2.976-.544 1.68-.08 2.192-.096 6.448-.096 4.288 0 4.8 0 6.464.096 1.568.064 2.4.32 2.976.544a4.831 4.831 0 0 1 1.84 1.2 4.966 4.966 0 0 1 1.2 1.824c.208.576.48 1.424.544 2.976.08 1.68.096 2.192.096 6.464s-.016 4.768-.096 6.464z"/>
      <path d="M16.064 7.776a8.224 8.224 0 1 0 0 16.448 8.224 8.224 0 1 0 0-16.448zm0 13.552a5.327 5.327 0 1 1 0-10.656 5.327 5.327 0 1 1 0 10.656zM26.528 7.456a1.92 1.92 0 0 1-3.84 0 1.92 1.92 0 0 1 3.84 0z"/>
    </symbol>
    <symbol id="icon-twitter" viewBox="0 0 32 32">
      <path d="M32 6.08c-1.184.528-2.464.864-3.776 1.04 1.36-.816 2.4-2.08 2.88-3.632a13.946 13.946 0 0 1-4.16 1.6 6.56 6.56 0 0 0-11.19 6.013l-.009-.045a18.548 18.548 0 0 1-13.477-6.83l-.027-.034a6.53 6.53 0 0 0-.887 3.307 6.598 6.598 0 0 0 2.865 5.446l.022.014c-1.04 0-2.08-.32-2.96-.8v.064c0 3.2 2.272 5.84 5.264 6.448a6.6 6.6 0 0 1-3.018.105l.042.007c.878 2.623 3.284 4.493 6.136 4.56h.008a13.098 13.098 0 0 1-8.159 2.828c-.547 0-1.087-.033-1.617-.098l.064.006c2.826 1.846 6.286 2.944 10.003 2.944h.065-.003c12.08 0 18.672-10 18.672-18.672 0-.288 0-.576-.032-.848 1.312-.928 2.4-2.08 3.296-3.408z"/>
    </symbol>
    <symbol id="icon-facebook" viewBox="0 0 32 32">
      <path d="M21.328 5.312h2.928V.224C23.744.16 22.016 0 20 0c-4.224 0-7.104 2.656-7.104 7.52V12h-4.64v5.68h4.64V32h5.696V17.696h4.464L23.76 12h-5.168V8.08c0-1.648.448-2.768 2.736-2.768z"/>
    </symbol>
    <symbol id="icon-linkedin" viewBox="0 0 32 32">
      <path d="M32 32V20.256c0-5.728-1.232-10.16-7.952-10.16a6.957 6.957 0 0 0-6.255 3.423l-.018.032h-.096v-2.912h-6.368v21.36h6.64V21.423c0-2.784.528-5.488 3.968-5.488 3.408 0 3.456 3.184 3.456 5.664v10.4h6.624zM.528 10.64h6.64V32H.528V10.64zM3.84 0A3.84 3.84 0 0 0 0 3.84v.016a3.872 3.872 0 0 0 3.838 3.872h.002c2.128 0 3.84-1.76 3.84-3.888A3.84 3.84 0 0 0 3.84 0z"/>
    </symbol>
    <symbol id="icon-ya-co" viewBox="0 0 28 32">
      <path d="m4.085 0 4.766 4.514H0v21.903h23.149v-8.374l4.766 4.507V0H4.085zm18.86 17.518L9.403 4.711h13.542v12.8zm-4.208 5.706H3.663V8.484h1.069v13.74h14.005v1.001zM7.224 29.345l-.558 1.144-.558-1.144h-.456l.817 1.532v.885h.415v-.885l.817-1.532h-.477zm.701 2.417.191-.558h.94l.204.558h.436l-.919-2.417h-.374l-.919 2.417h.443zm.661-1.907.354 1.008h-.701l.347-1.008zm2.219.953a.544.544 0 0 0-.088.298v.002c0 .204.068.374.211.497.143.129.34.191.579.191s.443-.068.613-.191l.136.157h.477l-.361-.415c.136-.191.204-.436.204-.735h-.34a.952.952 0 0 1-.109.443l-.463-.545.163-.129a.802.802 0 0 0 .252-.252.53.53 0 0 0-.095-.66.612.612 0 0 0-.409-.157h-.02.001l-.039-.001a.644.644 0 0 0-.432.165l.001-.001a.589.589 0 0 0-.171.416l.001.034v-.002c0 .082.02.163.054.245s.102.184.197.3c-.141.094-.26.207-.358.337l-.003.004zm1.089.532a.608.608 0 0 1-.381.136l-.02.001a.394.394 0 0 1-.266-.103.362.362 0 0 1-.109-.259v-.014.001c0-.136.068-.245.204-.347l.048-.041.524.626zm-.428-1.076c-.116-.136-.17-.252-.17-.347 0-.082.02-.15.068-.204a.24.24 0 0 1 .174-.075h.011-.001c.075 0 .136.02.184.068a.196.196 0 0 1 .068.157.309.309 0 0 1-.102.238l-.048.041-.184.123zm3.935 1.321c.17-.15.266-.347.286-.613h-.415c-.02.177-.075.3-.157.374-.088.075-.204.109-.374.109h-.021a.47.47 0 0 1-.387-.203l-.001-.002c-.095-.136-.143-.34-.143-.599v-.211c0-.259.048-.456.15-.586a.484.484 0 0 1 .422-.204c.157 0 .272.041.354.116s.136.204.157.374h.415a.906.906 0 0 0-.279-.612.929.929 0 0 0-.601-.219l-.049.001h.002c-.204 0-.374.048-.524.136a.927.927 0 0 0-.347.409c-.082.17-.123.374-.123.599v.232c0 .218.041.415.123.586s.191.3.34.388a.93.93 0 0 0 .511.136c.272 0 .497-.068.66-.211zm2.471-.341c.082-.184.123-.388.123-.626v-.136c0-.238-.041-.443-.123-.613a.927.927 0 0 0-.85-.559l-.037.001h.002a.92.92 0 0 0-.871.558 1.507 1.507 0 0 0-.129.626v.136c0 .232.048.436.129.613s.204.313.354.409a.999.999 0 0 0 .524.143c.204 0 .374-.048.531-.136a.943.943 0 0 0 .347-.415zm-.449-1.368c.102.136.157.347.157.613v.129c0 .272-.054.477-.157.62a.49.49 0 0 1-.403.212l-.027-.001h.001-.019a.502.502 0 0 1-.409-.21l-.001-.002a1.048 1.048 0 0 1-.159-.556l.002-.066v.003-.136c0-.266.054-.463.157-.613a.495.495 0 0 1 .43-.204h-.001c.184 0 .327.068.429.204z"/>
    </symbol>
    <symbol id="icon-tagline-here" viewBox="0 0 25 32">
      <path d="M10.529 1.803h-.08l-.388-.012H9.718c-.26 0-.519.007-.776.02l.036-.002c-2.24.123-4.431.689-6.468 1.649l-.265.129v13.625l.622-.209c1.995-.718 4.297-1.147 6.695-1.175h.013v1.791l-.652.018h-.049a19.837 19.837 0 0 0-8.503 2.421l.103-.052V2.523A17.872 17.872 0 0 1 5.141.612l.127-.027A17.924 17.924 0 0 1 9.774 0h.27c1.123.004 2.21.149 3.247.42l-.09-.02v1.766a13.221 13.221 0 0 0-2.132-.33l-.046-.003h-.043c-.154-.012-.308-.031-.449-.031zm3.102 1.803a19.382 19.382 0 0 0 6.085-.596l-.135.03a19.547 19.547 0 0 0 4.667-1.829l-.101.051v17.163a17.947 17.947 0 0 1-4.667 1.923l-.127.028a18.63 18.63 0 0 1-4.511.578h-.105c-1.18 0-2.325-.148-3.419-.427l.095.021V3.274c.639.156 1.396.274 2.17.33l.046.003zm8.738.136-.622.209c-2.067.744-4.451 1.174-6.936 1.174-.389 0-.776-.011-1.16-.031l.054.002-.505-.031v14.012l.431.037a16.602 16.602 0 0 0 5.407-.499l-.115.026a17.04 17.04 0 0 0 3.277-1.195l-.101.045.271-.123V3.743zM1.686 25.975a.922.922 0 0 0-.66-.278l-.037.001h.002c-.135 0-.271.025-.4.074a.926.926 0 0 0-.585.907v-.002 2.338c0 .16.025.326.092.474a.997.997 0 0 0 .234.314c.092.08.203.135.32.166s.234.049.351.049a.984.984 0 0 0 .966-.984v-.258h-.615v.203a.393.393 0 0 1-.031.209.377.377 0 0 1-.086.135.42.42 0 0 1-.252.086.307.307 0 0 1-.289-.122l-.001-.001a.55.55 0 0 1-.086-.297v-.018.001-2.178c0-.123.025-.24.08-.345a.307.307 0 0 1 .297-.142H.985h.011c.106 0 .2.05.26.129l.001.001a.492.492 0 0 1 .105.303v.213h.603v-.248c0-.281-.105-.537-.278-.732l.001.001zm3.625-.024a1.082 1.082 0 0 0-1.066-.188l.008-.002a.966.966 0 0 0-.32.185 1.024 1.024 0 0 0-.24.332 1.032 1.032 0 0 0-.086.455v2.234c-.006.16.025.314.086.462a.784.784 0 0 0 .24.308c.092.092.197.16.32.203a1.055 1.055 0 0 0 .733-.003l-.007.002a.955.955 0 0 0 .648-.904l-.002-.066v.003-2.24l.001-.043a1.01 1.01 0 0 0-.32-.738l-.001-.001zm-.283 3.015a.39.39 0 0 1-.123.326.447.447 0 0 1-.573-.001l.001.001a.399.399 0 0 1-.125-.29l.002-.038v.002-2.234a.39.39 0 0 1 .123-.326.447.447 0 0 1 .573.001l-.001-.001a.399.399 0 0 1 .125.29l-.002.038v-.002 2.234zm5.046 1.003v-4.246h-.591l-.769 2.246h-.012l-.775-2.246h-.578v4.24h.603v-2.585h.012l.591 1.828h.308l.597-1.822h.006v2.578h.609zm3.44-3.938a.776.776 0 0 0-.345-.234 1.313 1.313 0 0 0-.421-.068h-.915v4.24h.603v-1.662h.308c.191.012.375-.025.548-.111.244-.153.417-.4.467-.689l.001-.006a3.03 3.03 0 0 0-.029-1.103l.004.02a.908.908 0 0 0-.222-.394zm-.308 1.292a.532.532 0 0 1-.062.215.325.325 0 0 1-.154.148.605.605 0 0 1-.269.062H12.43v-1.446h.308c.098 0 .185.012.277.055a.314.314 0 0 1 .142.154c.03.069.048.149.049.233v.579zm3.163-1.594h-.492l-.923 4.24h.603l.178-.911h.818l.185.911h.597l-.954-4.24zm-.554 2.751.302-1.538h.006l.295 1.538h-.603zm4.462-.197h-.012l-.911-2.554h-.578v4.24h.603v-2.548h.012l.917 2.548h.566v-4.246h-.603v2.554zm3.692-2.554-.492 1.686h-.006l-.492-1.686h-.634l.831 2.449v1.785h.603v-1.785l.831-2.449h-.64zM0 31.163h.289v.818h.203v-.818h.289v-.166h-.782v.166zm2.449-.166-.382.985h.209l.08-.222h.394l.08.222h.215l-.388-.985h-.209zm-.031.597.129-.369.135.369h-.265zm2.444.024h.234v.123a.375.375 0 0 1-.234.086l-.017.001a.245.245 0 0 1-.192-.092.406.406 0 0 1-.074-.236l.001-.023v.001c0-.215.092-.326.283-.326l.02-.001a.21.21 0 0 1 .202.153v.001l.197-.037c-.043-.191-.185-.289-.418-.289h-.019a.493.493 0 0 0-.327.124.48.48 0 0 0-.141.383v-.002c0 .135.037.271.123.369a.479.479 0 0 0 .347.149l.03-.001h-.001a.608.608 0 0 0 .418-.16v-.388h-.431v.166zm2.473-.621h-.197v.985h.689v-.166h-.492v-.818zm2.093 0h-.203v.985h.203v-.985zm2.043.658-.406-.658h-.191v.985h.185v-.64l.394.64h.197v-.985h-.185v.658zm1.846-.104h.492v-.166h-.492v-.222h.523v-.166h-.726v.985h.751v-.166h-.554v-.265zm4.474-.166h-.388v-.388h-.197v.985h.197v-.431h.388v.431h.197v-.985h-.197v.388zm1.858.166h.492v-.166h-.492v-.222h.529v-.166h-.726v.985h.745v-.166h-.548v-.265zm2.517 0c.172-.031.258-.123.258-.277a.23.23 0 0 0-.091-.215h-.001a.55.55 0 0 0-.256-.063l-.035.001h.002-.418v.985h.197v-.412h.037c.043 0 .086.006.123.025.031.018.062.043.074.074l.215.308h.234l-.123-.185a.638.638 0 0 0-.215-.246zm-.197-.136h-.148v-.246h.154a.569.569 0 0 1 .203.018.122.122 0 0 1-.005.202.558.558 0 0 1-.168.026l-.037-.001h.002zm2.099.136h.492v-.166h-.492v-.222h.529v-.166h-.726v.985h.745v-.166h-.548v-.265z"/>
    </symbol>
    <symbol id="icon-company" viewBox="0 0 34 32">
      <path d="m5.638 31.314.038.008.03.015.168.16c-.13.13-.29.229-.465.305a1.822 1.822 0 0 1-.663.107c-.213 0-.427-.03-.625-.099a1.278 1.278 0 0 1-.766-.715l-.003-.008a1.459 1.459 0 0 1 .004-1.145l-.004.01a1.39 1.39 0 0 1 .328-.442 1.38 1.38 0 0 1 .495-.282 1.92 1.92 0 0 1 .644-.109c.214 0 .42.034.612.098l-.014-.004c.16.061.312.152.442.259l-.137.168a.152.152 0 0 1-.037.03h-.001a.094.094 0 0 1-.053.015H5.63a.136.136 0 0 1-.061-.023l-.076-.046-.099-.053a1.16 1.16 0 0 0-.525-.123l-.057.001h.003c-.152 0-.312.023-.457.076a.988.988 0 0 0-.592.55l-.002.006c-.057.13-.091.282-.091.442 0 .152.03.312.084.457a.951.951 0 0 0 .572.547l.007.002c.137.046.282.076.427.076l.251-.015c.212-.023.4-.108.55-.237l-.001.001a.128.128 0 0 1 .076-.03zm4.8-.8c0 .198-.03.381-.107.564a1.42 1.42 0 0 1-.312.434c-.145.13-.305.229-.495.29a1.998 1.998 0 0 1-1.265 0 1.451 1.451 0 0 1-.489-.291l.001.001a1.276 1.276 0 0 1-.309-.434l-.003-.008a1.432 1.432 0 0 1 0-1.12c.076-.168.175-.312.312-.442.145-.122.305-.213.488-.282a1.998 1.998 0 0 1 1.278.004l-.014-.004c.183.069.35.168.495.29.258.238.42.577.42.955l-.001.046v-.002zm-.434 0a1.31 1.31 0 0 0-.076-.45.934.934 0 0 0-.565-.547l-.007-.002a1.47 1.47 0 0 0-.924.003l.01-.003a1.004 1.004 0 0 0-.359.214l.001-.001a.905.905 0 0 0-.226.329l-.002.006c-.099.297-.099.61 0 .907a.92.92 0 0 0 .573.547l.006.002c.297.091.625.091.914 0a1.12 1.12 0 0 0 .358-.213.954.954 0 0 0 .221-.335c.053-.152.076-.305.076-.457zm3.71.473.046.107.046-.107.053-.099 1.067-1.676c.015-.023.038-.046.053-.046a.267.267 0 0 1 .091-.015h.312v2.728h-.373V29.7l-1.067 1.699a.153.153 0 0 1-.06.061h-.001a.19.19 0 0 1-.09.023h-.065a.176.176 0 0 1-.089-.023h.001a.153.153 0 0 1-.061-.06v-.001l-1.097-1.714v2.194h-.366v-2.728h.32c.03 0 .053 0 .084.015a.119.119 0 0 1 .061.046l1.082 1.676.053.099zm3.993-.13v1.021h-.411V29.15h.922c.175 0 .35.023.518.061.137.03.259.091.366.168a.782.782 0 0 1 .213.267.805.805 0 0 1 .069.35v.008a.761.761 0 0 1-.303.608l-.002.001a.93.93 0 0 1-.366.183 1.698 1.698 0 0 1-.486.069h-.018.001l-.503-.008zm0-.297h.503c.114 0 .221-.008.328-.038a.705.705 0 0 0 .23-.123l-.001.001a.524.524 0 0 0 .191-.405v-.007l.001-.029a.456.456 0 0 0-.04-.188l.001.003a.544.544 0 0 0-.151-.19l-.001-.001a.91.91 0 0 0-.556-.145h-.503v1.12zm5.584 1.318h-.339a.148.148 0 0 1-.081-.024h.001a.18.18 0 0 1-.053-.06v-.001l-.282-.663H21.12l-.297.663a.152.152 0 0 1-.14.092l-.013-.001h.001-.32l1.25-2.735h.434l1.257 2.728zm-2.057-1.013h1.173l-.495-1.105a1.565 1.565 0 0 1-.088-.246l-.003-.013-.046.145-.046.114-.495 1.105zm3.856-1.699.061.046 1.821 2.057v-2.118h.366v2.728h-.206c-.03 0-.061 0-.084-.015a.226.226 0 0 1-.068-.053l-1.813-2.057v2.126h-.373v-2.728h.229c.015 0 .046 0 .069.015zm5.31 1.63v1.082h-.411v-1.082l-1.15-1.646h.384c.03 0 .058.009.081.024h-.001l.053.061.716 1.067c.045.067.088.145.125.226l.004.01.053-.114.076-.122.701-1.067a.31.31 0 0 1 .053-.061.135.135 0 0 1 .086-.031h.386l-1.158 1.653zm-16.891-6.217.549.046c2.781-1.067 5.093-2.834 6.791-5.089l.028-.039a12.187 12.187 0 0 0 2.423-7.554v.011l-3.093-2.682c.632 2.842.335 5.775-.846 8.48-1.296 2.832-3.301 5.15-5.791 6.789l-.06.037z"/>
      <path d="m12.404 24.457.084.008c2.819-1.752 4.975-4.198 6.171-7.032.682-1.541 1.08-3.339 1.08-5.229 0-1.282-.183-2.522-.524-3.695l.023.093-4.404-3.817c1.372 2.346 2.182 5.166 2.182 8.175 0 .69-.043 1.371-.125 2.038l.008-.08c-.502 3.72-2.121 6.992-4.504 9.541l.009-.01zm14.926-9.348c-.856 3.109-2.689 5.706-5.143 7.508l-.038.027a16.124 16.124 0 0 1-2.453 1.531c2.126-.541 4.084-1.501 5.714-2.804a12.757 12.757 0 0 0 3.67-4.645l.033-.079-1.783-1.539z"/>
      <path d="m26.629 14.674-2.545-2.21a12.722 12.722 0 0 1-2.41 7.161l.026-.037a15.625 15.625 0 0 1-6.121 5.042l-.097.04h.015c.571 0 1.143-.03 1.707-.084 2.417-.853 4.477-2.196 6.144-3.919l.004-.004a12.89 12.89 0 0 0 3.258-5.9l.018-.088zM12.777 3.17 9.745.534c-2.706.891-4.978 2.482-6.677 4.561l-.02.026a11.363 11.363 0 0 0-2.53 7.065v.005a11.5 11.5 0 0 0 3.077 7.695l-.007-.007a14.765 14.765 0 0 0 7.759 4.41l.097.017a16.574 16.574 0 0 0 4.644-10.322l.003-.055a16.096 16.096 0 0 0-3.342-10.796l.028.037zm20.853 11.1c-.008-3.314-1.524-6.476-4.221-8.823A15.5 15.5 0 0 0 19.37 1.782h-.116.006c-1.76 0-3.505.282-5.15.838l18.56 16.114c.604-1.312.958-2.847.96-4.464v-.001z"/>
    </symbol>
    <symbol id="icon-foster-peters" viewBox="0 0 65 32">
      <path d="M10.019 9.981c-1.829 0-3.314 1.318-3.314 2.941 0 1.63 1.486 2.941 3.307 2.941 1.829 0 3.314-1.31 3.314-2.941 0-1.623-1.486-2.941-3.307-2.941zm24.419-.937c-.008-2.255-1.021-4.419-2.819-6.019A10.181 10.181 0 0 0 24.927.533h-.062.003c-2.537 0-4.975.899-6.766 2.499a8.064 8.064 0 0 0-2.819 6.005v12.44S34.437 19.58 34.437 9.043zM0 25.562c0 1.57.709 3.07 1.958 4.183a7.09 7.09 0 0 0 4.662 1.737h.041-.002c1.768 0 3.459-.625 4.709-1.737a5.614 5.614 0 0 0 1.958-4.178v-8.652S0 18.233 0 25.563zm6.659 1.547c-.343 0-.686-.084-.968-.259a1.607 1.607 0 0 1-.636-.684l-.004-.009a1.371 1.371 0 0 1-.097-.908l-.002.009c.069-.305.229-.571.48-.792a1.82 1.82 0 0 1 .88-.425l.011-.002c.335-.053.686-.023 1.006.091s.594.312.785.571a1.43 1.43 0 0 1-.211 1.956l-.002.002a1.83 1.83 0 0 1-.571.343 1.969 1.969 0 0 1-.67.114zm13.471-.854h-1.288v1.333h-.67v-3.253h2.118v.541h-1.448v.838h1.288v.541zm3.215-.221c0 .32-.053.602-.168.838a1.276 1.276 0 0 1-1.166.763l-.048-.001h.002l-.045.001c-.517 0-.962-.302-1.17-.74l-.003-.008a1.889 1.889 0 0 1-.168-.785l.001-.056v.003-.145c0-.328.053-.61.168-.846a1.297 1.297 0 0 1 1.181-.762l.04.001h-.002c.267 0 .51.069.716.198.213.13.381.32.488.564.122.236.175.518.175.838v.152zm-.678-.152c0-.335-.061-.594-.183-.77a.595.595 0 0 0-.496-.267h-.023.001c-.229 0-.404.084-.526.259s-.183.434-.183.77v.16c0 .335.061.587.183.77s.305.274.533.274c.221 0 .389-.084.51-.259s.183-.434.183-.77v-.16zm2.849.853c0-.13-.046-.229-.13-.29a1.683 1.683 0 0 0-.476-.211l-.012-.003a3.25 3.25 0 0 1-.549-.229c-.366-.198-.556-.465-.556-.8 0-.183.053-.335.152-.472s.236-.244.427-.328c.183-.076.389-.114.625-.114.229 0 .434.046.617.13.183.076.32.198.427.358a.939.939 0 0 1 .152.518h-.67a.424.424 0 0 0-.145-.343.569.569 0 0 0-.363-.13l-.034.001h.002l-.035-.001a.606.606 0 0 0-.348.109l.002-.001a.326.326 0 0 0-.137.267v.008c0 .107.053.19.16.267.107.069.267.137.472.198.381.114.655.259.838.427a.86.86 0 0 1 .251.632c0 .282-.099.503-.312.663s-.503.244-.861.244h-.021c-.24 0-.469-.05-.675-.142l.011.004a.97.97 0 0 1-.633-.908v-.023.001h.67c0 .358.221.533.648.533.152 0 .282-.03.373-.091a.35.35 0 0 0 .13-.274zm3.581-1.859h-.998v2.712h-.67v-2.712h-.99v-.533h2.651v.533zm2.332 1.295h-1.28v.876h1.509v.533h-2.179v-3.246h2.171v.541h-1.501v.777h1.28v.526zm1.828.229h-.533v1.189h-.678v-3.253h1.211c.381 0 .678.084.884.259.213.168.312.411.312.724a.973.973 0 0 1-.145.556.878.878 0 0 1-.434.35l.701 1.333v.03h-.716l-.61-1.189zm-.533-.549h.533c.168 0 .305-.038.389-.122a.456.456 0 0 0 .138-.327l-.001-.032v.001c0-.152-.038-.274-.13-.358-.084-.091-.221-.137-.396-.137h-.533v.975zm4.053.587v1.143h-.67v-3.246h1.265c.244 0 .457.046.648.137a.943.943 0 0 1 .427.381c.099.16.152.35.152.556 0 .32-.114.571-.335.762-.213.175-.518.267-.899.267h-.587zm0-.533h.594c.175 0 .312-.046.404-.13.099-.084.145-.206.145-.358v-.015a.532.532 0 0 0-.145-.366.525.525 0 0 0-.37-.152h-.628v1.013zm4.236.274h-1.288v.869h1.509v.533h-2.179v-3.246h2.171v.541h-1.501v.777h1.288v.526zm3.109-1.295h-.998v2.705h-.67v-2.712h-.983v-.533h2.651v.533zm2.339 1.295h-1.295v.869h1.516v.533h-2.187v-3.246h2.171v.541H45.18v.777h1.288v.526zm1.813.221h-.533v1.189h-.67v-3.253h1.211c.381 0 .686.084.891.259.206.168.305.411.305.724 0 .229-.046.404-.137.556a.937.937 0 0 1-.442.35l.709 1.333v.03h-.724l-.61-1.189zm-.533-.549h.541c.168 0 .305-.038.396-.122a.456.456 0 0 0 .138-.327l-.001-.032v.001a.467.467 0 0 0-.137-.358c-.076-.091-.213-.137-.396-.137h-.533v.975zm3.939.884c0-.13-.046-.229-.137-.29a1.685 1.685 0 0 0-.468-.21l-.012-.003a2.99 2.99 0 0 1-.549-.229c-.373-.198-.556-.465-.556-.8 0-.183.046-.335.152-.472a.974.974 0 0 1 .419-.328c.19-.076.396-.114.625-.114s.442.046.625.13c.183.076.32.198.419.358a.939.939 0 0 1 .152.518h-.67c0-.152-.046-.267-.137-.343a.569.569 0 0 0-.363-.13l-.034.001h.002l-.035-.001a.606.606 0 0 0-.348.109l.002-.001a.326.326 0 0 0-.137.267v.008c0 .107.053.19.152.267.114.069.267.137.48.198.381.114.655.259.83.427s.259.381.259.632c0 .282-.107.503-.32.663s-.495.244-.861.244h-.021c-.24 0-.469-.05-.675-.142l.011.004a.97.97 0 0 1-.633-.908v-.023.001h.678c0 .358.213.533.64.533.16 0 .29-.03.381-.091a.35.35 0 0 0 .13-.274z"/>
    </symbol>
    <symbol id="icon-brand" viewBox="0 0 43 32">
      <path d="M3.241 26.376a.96.96 0 0 1 .245.66.92.92 0 0 1-.088.463 1.115 1.115 0 0 1-.293.381 1.86 1.86 0 0 1-1.13.306H.001v-4.221h1.934a1.764 1.764 0 0 1 1.082.29l-.007-.004a.947.947 0 0 1 .374.79.899.899 0 0 1-.225.64c-.15.17-.354.286-.586.334.259.041.497.17.667.361zm-2.315-.64h.817a.84.84 0 0 0 .531-.136.41.41 0 0 0 .136-.191.427.427 0 0 0 .041-.225.474.474 0 0 0-.035-.228l.001.003a.532.532 0 0 0-.135-.183l-.001-.001a.848.848 0 0 0-.547-.143h.003H.92v1.103zm1.43 1.621a.545.545 0 0 0 .198-.429l.001-.026a.486.486 0 0 0-.05-.215l.001.003a.548.548 0 0 0-.155-.197l-.001-.001a.904.904 0 0 0-.503-.151l-.058.002h.003H.92V27.5h.885a.859.859 0 0 0 .545-.15zm4.841.83-1.069-1.648h-.409v1.648h-.933v-4.221h1.757a1.826 1.826 0 0 1 1.23.365l-.005-.003a1.264 1.264 0 0 1 .134 1.745l.002-.002a1.482 1.482 0 0 1-.844.429l1.144 1.689H7.196zm-1.478-2.226h.763c.524 0 .79-.204.79-.633l.001-.027a.576.576 0 0 0-.05-.235l.001.004a.645.645 0 0 0-.149-.218.867.867 0 0 0-.595-.17h.003-.776l.007 1.28zm6.543 1.375h-1.845l-.327.851h-.974l1.702-4.174h1.049l1.688 4.174h-.974l-.327-.851zm-.245-.64-.681-1.777-.674 1.777h1.355zm6.584 1.491h-.919l-2.063-2.866v2.86h-.912v-4.208h.919l2.063 2.88v-2.88h.919v4.214zm5.249-1.014c-.191.32-.477.579-.831.749a3.008 3.008 0 0 1-1.294.266h-1.634v-4.221h1.634c.449-.007.892.082 1.294.266.354.163.64.415.831.735.179.318.284.698.284 1.103s-.105.785-.29 1.114l.006-.012zm-1.048-.096c.259-.279.409-.64.409-1.008s-.15-.729-.409-1.008a1.684 1.684 0 0 0-1.163-.354h.005-.633v2.723h.64c.415.027.831-.102 1.151-.354zM12.841.524s11.867 4.099 11.615 10.043V20.61s-11.86-4.106-11.615-10.043V.524zM35.037 18.26a17.007 17.007 0 0 1 7.474-2.541l.069-.005v-3.146c-3.122 1.095-5.703 3.078-7.512 5.644l-.032.048z"/>
      <path d="M33.688 19.2c1.949-3.435 5.056-6.021 8.781-7.253l.111-.032V2.839S25.668 8.701 26.028 17.157v14.298s.749-.259 1.94-.749c0-.463 0-.919.054-1.382a14.5 14.5 0 0 1 5.63-10.092l.035-.026z"/>
      <path d="M32.082 24.517c.089-.987.286-1.974.592-2.928a13.174 13.174 0 0 0-3.581 8.626l-.001.021c.96-.429 2.077-.953 3.254-1.573a13.685 13.685 0 0 1-.266-4.146zm.667.055a13.279 13.279 0 0 0 .211 3.745c4.623-2.526 9.811-6.434 9.614-11.166v-.409a15.777 15.777 0 0 0-8.81 3.775l.02-.017a12.792 12.792 0 0 0-1.024 4.021l-.004.05z"/>
    </symbol>
    <symbol id="icon-tag-line" viewBox="0 0 67 32">
      <path d="M33.721 15.218a2.082 2.082 0 0 1-.426-1.415v.006-2.048c0-.633.142-1.109.427-1.436s.782-.491 1.472-.484c.647 0 1.116.142 1.387.412.299.356.441.789.412 1.23v.476h-1.166v-.484c0-.164-.007-.32-.036-.476a.464.464 0 0 0-.163-.284l-.001-.001a.673.673 0 0 0-.429-.114h.002l-.042-.001a.708.708 0 0 0-.401.124l.002-.002a.543.543 0 0 0-.198.309l-.001.004a2.99 2.99 0 0 0-.043.498v2.489c-.021.249.036.484.149.704a.578.578 0 0 0 .537.206H35.2a.646.646 0 0 0 .415-.108l-.002.001a.497.497 0 0 0 .177-.303v-.003c.021-.164.036-.334.036-.498v-.512h1.166v.462c.028.455-.114.91-.405 1.287-.27.306-.725.455-1.394.455-.676 0-1.18-.164-1.472-.498zm4.864.028c-.299-.32-.441-.782-.441-1.401V11.69c0-.612.142-1.067.441-1.387.292-.313.782-.469 1.479-.462.683 0 1.173.149 1.465.462.299.313.448.775.448 1.387v2.155c0 .612-.149 1.074-.448 1.394-.299.327-.782.484-1.465.484s-1.188-.164-1.479-.476zm2.019-.519a1.19 1.19 0 0 0 .142-.64v-2.638a1.166 1.166 0 0 0-.142-.626.556.556 0 0 0-.231-.169l-.004-.001a.625.625 0 0 0-.309-.036h.003a.647.647 0 0 0-.318.038l.005-.002a.567.567 0 0 0-.241.17l-.001.001c-.1.192-.149.412-.142.626v2.652c-.007.213.036.441.142.64a.82.82 0 0 0 .852.154l-.006.002a.742.742 0 0 0 .249-.156v-.014zm2.774-4.828h1.259l.946 3.982.967-3.982h1.223l.121 5.746h-.903l-.1-3.989-.924 3.989h-.74l-.967-4.004-.085 4.004h-.917l.114-5.746zm5.923 0h1.956c1.131 0 1.692.548 1.692 1.636 0 1.038-.59 1.564-1.778 1.564h-.668v2.546h-1.209l.007-5.746zm1.671 2.46c.121.007.242 0 .356-.028a1.01 1.01 0 0 0 .313-.156.937.937 0 0 0 .171-.647c0-.178-.014-.356-.057-.526a.42.42 0 0 0-.093-.157.504.504 0 0 0-.147-.112l-.003-.001a1.264 1.264 0 0 0-.54-.092h-.469v1.721h.469zm3.712-2.46h1.301l1.337 5.746h-1.131l-.263-1.323h-1.159l-.27 1.323h-1.138l1.33-5.746zm1.117 3.754-.455-2.411-.448 2.418h.903zm2.595-3.754h.846l1.614 3.278V9.906h1.01v5.739h-.804l-1.628-3.413v3.413h-1.038V9.899zm5.817 3.555-1.351-3.548H64l.818 2.276.768-2.276h1.109l-1.323 3.556v2.183h-1.166v-2.19zm-28.622 4.701v.299h-.988v2.34h-.412v-2.34h-.996v-.299h2.396zm3.093 2.638h-.327a.144.144 0 0 1-.086-.029.146.146 0 0 1-.057-.056v-.001l-.284-.626h-1.365l-.284.626a.166.166 0 0 1-.043.071.14.14 0 0 1-.076.022l-.017-.001h.001-.32l1.209-2.631h.427l1.216 2.624zm-2.005-.981h1.138l-.484-1.067a1.769 1.769 0 0 1-.082-.243l-.003-.013-.05.142-.043.114-.476 1.067zm4.082.718h.228c.135-.007.261-.033.379-.074l-.01.003.156-.071v-.59h-.486a.098.098 0 0 1-.062-.022.06.06 0 0 1-.014-.021l-.007-.028v-.199h.939v1.01a1.818 1.818 0 0 1-.804.263h-.007a3.036 3.036 0 0 1-.356.021c-.213 0-.412-.036-.612-.1a1.488 1.488 0 0 1-.485-.279l.002.002a1.294 1.294 0 0 1-.302-.405l-.003-.008a1.357 1.357 0 0 1-.114-.548l-.001-.045c0-.369.165-.699.426-.921l.002-.001c.128-.121.299-.213.476-.277a1.995 1.995 0 0 1 .994-.069l-.012-.002c.199.029.379.089.542.175l-.009-.004c.071.036.142.085.213.135l-.121.164a.095.095 0 0 1-.042.035h-.001a.112.112 0 0 1-.049.014.148.148 0 0 1-.072-.022h.001a.506.506 0 0 1-.121-.064 1.5 1.5 0 0 0-.657-.15h-.035.002-.025c-.159 0-.312.026-.455.074l.01-.003c-.142.05-.256.121-.356.213a.924.924 0 0 0-.225.314l-.002.006a1.252 1.252 0 0 0 0 .882 1.034 1.034 0 0 0 1.072.59l-.005.001zm3.854-.043h1.316v.306H44.21v-2.631h.412l-.007 2.325zm2.688.306h-.412v-2.631h.412v2.631zm1.536-2.624a.15.15 0 0 1 .064.05l1.764 1.984v-2.055h.356v2.645h-.199c-.036 0-.064 0-.092-.014a.226.226 0 0 1-.064-.05l-1.764-1.991v2.055h-.348v-2.631h.284zm5.234-.014v.284h-1.465v.875h1.188v.284h-1.188v.896h1.465v.284h-1.892v-2.624h1.892zM10.78 1.892l18.347 4.494v15.758L10.78 17.65V1.892zM9.607.54v17.877L30.3 23.494V5.617L9.6.547z"/>
      <path d="M20.693 31.787 0 26.695V8.839l20.693 5.077v17.863z"/>
      <path d="m9.948 1.685 18.105 4.444-7.701 6.642L2.247 8.334l7.701-6.649zM9.607.548 0 8.84l20.693 5.077 9.6-8.299L9.6.548zM21.86 30.777l8.441-7.289-8.441-2.069v9.358z"/>
    </symbol>
    <symbol id="icon-close" viewBox="0 0 32 32">
      <path d="m26.667 7.289-1.956-1.956-7.822 7.822-7.822-7.822-1.956 1.956 7.822 7.822-7.822 7.822 1.956 1.956 7.822-7.822 7.822 7.822 1.956-1.956-7.822-7.822 7.822-7.822z"/>
    </symbol>
    <symbol id="icon-form" viewBox="0 0 32 32">
      <path  d="M32 0 0 18l10.227 3.787L26 7 14 23.187V32l5.733-6.693L27 28l5-28z"/>
    </symbol>
    <symbol id="icon-check" viewBox="0 0 34 32">
      <path fill="var(--color1, #fff)" stroke="var(--color1, #fff)" stroke-width=".427" d="m8.448 16.533-.149-.128-.149.128-1.899 1.792-.171.149.171.171 7.616 7.253.128-.149 16.171-15.424-.149-.149-1.877-1.792-.149-.149-.149.149-13.973 13.312-5.419-5.163z"/>
    </symbol>
    <symbol id="icon-export-menu" viewBox="0 0 32 32">
      <path d="M6.4 11.736V9.6h19.2v2.136H6.4zm0 5.328h19.2v-2.128H6.4v2.128zm0 5.336h19.2v-2.136H6.4V22.4z"/>
    </symbol>
    <symbol id="icon-close-mobile" viewBox="0 0 32 32">
      <path d="M23.736 10.304 22.232 8.8l-5.968 5.96-5.96-5.96L8.8 10.304l5.96 5.96L8.8 22.24l1.504 1.504 5.96-5.968 5.968 5.968 1.504-1.504-5.968-5.968 5.968-5.96z"/>
    </symbol>
    <symbol id="person" viewBox="0 0 32 32">
      <path d="M16 16a5.333 5.333 0 1 0 0-10.666A5.333 5.333 0 1 0 16 16zm0 2.667c-3.561 0-10.667 1.787-10.667 5.333v1.333c0 .732.599 1.333 1.333 1.333h18.667c.732 0 1.333-.601 1.333-1.333V24c0-3.547-7.108-5.333-10.667-5.333z"/>
    </symbol>
    <symbol id="phone" viewBox="0 0 32 32">
      <path d="m24.882 19.774-3.268-.373a2.552 2.552 0 0 0-2.11.732l-2.368 2.368c-3.669-1.894-6.585-4.81-8.427-8.372l-.051-.108 2.382-2.377a2.552 2.552 0 0 0 .731-2.122l.001.012-.373-3.243a2.578 2.578 0 0 0-2.557-2.276H6.613c-1.454 0-2.663 1.209-2.574 2.661.683 10.987 9.47 19.762 20.444 20.444 1.452.089 2.663-1.12 2.663-2.574v-2.238a2.549 2.549 0 0 0-2.253-2.532l-.012-.001z"/>
    </symbol>
    <symbol id="email" viewBox="0 0 32 32">
      <path d="M26.667 5.333H5.334A2.662 2.662 0 0 0 2.682 8l-.014 16c0 1.467 1.2 2.667 2.667 2.667h21.333c1.467 0 2.667-1.2 2.667-2.667V8c0-1.467-1.2-2.667-2.667-2.667zm-.534 5.668-9.426 5.892a1.343 1.343 0 0 1-1.421-.004l.006.003L5.866 11A1.133 1.133 0 1 1 7.07 9.083l-.004-.003 8.933 5.586 8.933-5.588a1.132 1.132 0 1 1 1.204 1.916l-.005.003z"/>
    </symbol>
  </defs>
</svg>
